<svg width="64" height="64" viewBox="0 0 64 64" fill="white" xmlns="http://www.w3.org/2000/svg">
<path d="M31.077 53.2092C31.4245 52.9742 31.8362 52.8527 32.2556 52.8614C32.6037 52.8695 32.9438 52.9671 33.2433 53.1447C33.5428 53.3224 33.7915 53.5741 33.9655 53.8757C34.1891 53.6481 34.4572 53.469 34.753 53.3493C35.0488 53.2297 35.366 53.1721 35.685 53.1802C36.2477 53.1922 36.7868 53.4086 37.2017 53.7888C37.3509 53.2329 37.6823 52.7431 38.143 52.398C38.6037 52.0529 39.1669 51.8725 39.7424 51.8857C40.0647 51.8937 40.3826 51.9625 40.6794 52.0886V52.1465C40.7181 50.6298 41.9353 49.4223 43.423 49.374C43.1367 48.7832 43.0261 48.1227 43.1042 47.4709C43.2491 46.2827 43.9833 45.307 44.9783 44.795L44.9879 44.8046C44.4759 44.2733 44.1668 43.5488 44.1861 42.747C44.1993 42.1338 44.4093 41.5411 44.7851 41.0564C44.2351 40.7462 43.8147 40.249 43.6002 39.6552C43.3857 39.0613 43.3913 38.4102 43.6162 37.8202C43.0228 37.7595 42.4742 37.477 42.0801 37.0292C41.6861 36.5814 41.4756 36.0014 41.4909 35.4051C41.4911 35.2822 41.5008 35.1594 41.5199 35.038C41.3864 35.0653 41.2504 35.0782 41.1141 35.0766C40.6921 35.0642 40.2861 34.9125 39.9593 34.6451C39.6326 34.3778 39.4034 34.0098 39.3077 33.5986C39.0139 33.7958 38.6663 33.8971 38.3126 33.8884C37.5205 33.8594 36.8636 33.3088 36.6897 32.5649C36.5186 32.6599 36.325 32.7066 36.1294 32.7002C35.9681 32.6966 35.8097 32.657 35.6657 32.5843V32.5649C35.4934 33.153 35.1703 33.6858 34.7286 34.1106C34.9448 34.2118 35.1214 34.3816 35.231 34.5936C35.3118 34.7529 35.3522 34.9295 35.3489 35.108C35.3455 35.2866 35.2984 35.4615 35.2117 35.6176C35.51 35.6852 35.7848 35.8311 36.008 36.0403C36.2311 36.2495 36.3944 36.5144 36.481 36.8077C36.5676 37.101 36.5744 37.4122 36.5007 37.709C36.427 38.0058 36.2755 38.2776 36.0618 38.4964C36.4614 38.6714 36.7888 38.9783 36.9892 39.3658C37.4722 40.3029 37.0954 41.4525 36.1584 41.9355C36.3684 42.1282 36.5418 42.3573 36.6704 42.6117C37.2693 43.7806 36.8153 45.22 35.6464 45.7997C35.4632 45.8954 35.2684 45.9668 35.0668 46.0122V46.0218C35.2257 46.33 35.3223 46.6666 35.351 47.0121C35.3797 47.3577 35.34 47.7056 35.2341 48.0358C35.1282 48.366 34.9582 48.6721 34.7339 48.9365C34.5096 49.2009 34.2353 49.4185 33.9268 49.5769C33.4892 49.8019 32.997 49.8989 32.5068 49.857C32.5425 50.4428 32.3977 51.0255 32.092 51.5264C31.7862 52.0274 31.3342 52.4225 30.7969 52.6585C30.9262 52.8193 31.0245 53.0027 31.0867 53.1995C31.0835 53.1997 31.0802 53.1997 31.077 53.1995V53.2092Z"/>
<path d="M60.2622 0.96582H3.73933C3.004 0.96582 2.2988 1.25793 1.77885 1.77787C1.2589 2.29782 0.966797 3.00303 0.966797 3.73835V59.527C0.966797 59.8911 1.03851 60.2517 1.17784 60.588C1.31718 60.9244 1.5214 61.23 1.77885 61.4875C2.0363 61.745 2.34195 61.9492 2.67832 62.0885C3.0147 62.2278 3.37523 62.2996 3.73933 62.2996H60.2622C60.6263 62.2996 60.9868 62.2278 61.3232 62.0885C61.6596 61.9492 61.9652 61.745 62.2227 61.4875C62.4801 61.23 62.6843 60.9244 62.8237 60.588C62.963 60.2517 63.0347 59.8911 63.0347 59.527V3.73835C63.0347 3.37426 62.963 3.01373 62.8237 2.67735C62.6843 2.34097 62.4801 2.03533 62.2227 1.77787C61.9652 1.52042 61.6596 1.3162 61.3232 1.17687C60.9868 1.03753 60.6263 0.96582 60.2622 0.96582ZM57.7022 38.5254C57.3351 39.105 56.7555 39.4914 56.1372 39.646C56.4433 40.0052 56.6336 40.4486 56.6829 40.918C56.7322 41.3873 56.6384 41.8607 56.4136 42.2757C56.1889 42.6907 55.8438 43.0279 55.4237 43.2431C55.0037 43.4582 54.5283 43.5412 54.0602 43.4811C54.0547 43.4456 54.0483 43.4101 54.0409 43.3749C54.1123 43.7364 54.0838 44.1106 53.9585 44.4572C53.8332 44.8038 53.6159 45.1098 53.3299 45.3422C53.0439 45.5746 52.6999 45.7247 52.335 45.7763C51.9701 45.828 51.598 45.7793 51.2587 45.6354C51.233 45.8933 51.1469 46.1415 51.0076 46.3599C50.7467 46.7753 50.3313 47.0362 49.8966 47.1038C49.9837 47.4904 50.0033 47.8891 49.9546 48.2823C49.848 49.1905 49.3852 50.0192 48.6678 50.5862C47.9505 51.1533 47.0373 51.4122 46.1291 51.306H46.2257C46.3316 51.6234 46.3807 51.957 46.3706 52.2914C46.3503 53.0456 46.0318 53.761 45.485 54.2807C44.9381 54.8005 44.2074 55.0821 43.4531 55.0639C43.0294 55.053 42.6135 54.9474 42.2359 54.7548C42.1805 55.2367 41.9897 55.6931 41.6857 56.0711C41.3817 56.4492 40.9769 56.7335 40.5182 56.8911C40.0594 57.0488 39.5654 57.0733 39.0932 56.962C38.6211 56.8506 38.1901 56.6079 37.8501 56.2618C37.6996 56.7091 37.4174 57.1003 37.0404 57.3841C36.6634 57.6679 36.2093 57.8309 35.7379 57.8518C35.2665 57.8727 34.7998 57.7505 34.3992 57.5012C33.9986 57.2519 33.6828 56.8872 33.4933 56.455C33.2155 56.6829 32.8822 56.833 32.5275 56.8898C32.1727 56.9467 31.8092 56.9083 31.4741 56.7786C31.1391 56.6489 30.8445 56.4325 30.6205 56.1516C30.3964 55.8707 30.251 55.5354 30.1991 55.1799C29.9644 55.2933 29.7062 55.3496 29.4456 55.3441C28.6051 55.3248 27.9193 54.6679 27.842 53.8467L27.8516 53.8274C27.4639 54.4393 26.8924 54.9128 26.219 55.1799C25.3863 55.5131 24.4565 55.5089 23.6269 55.168C22.7973 54.8271 22.1331 54.1765 21.7752 53.354C21.5484 53.5987 21.2803 53.8014 20.9831 53.953C20.3115 54.2944 19.532 54.356 18.8151 54.1243C18.0982 53.8926 17.5023 53.3864 17.1576 52.7165C16.9613 52.3398 16.8524 51.9238 16.8388 51.4993C16.3897 51.678 15.8992 51.7264 15.4238 51.6389C14.9484 51.5514 14.5073 51.3316 14.1512 51.0048C13.7951 50.6779 13.5384 50.2572 13.4106 49.791C13.2827 49.3249 13.289 48.8321 13.4287 48.3693C12.9642 48.4518 12.4856 48.3918 12.0559 48.1973C11.6261 48.0028 11.2652 47.6828 11.0207 47.2794C10.7761 46.876 10.6593 46.4081 10.6857 45.9371C10.712 45.4661 10.8802 45.014 11.1682 44.6404C10.8344 44.5056 10.5426 44.2845 10.3225 43.9997C10.1024 43.7149 9.96208 43.3767 9.91587 43.0198C9.86966 42.6628 9.91923 42.3 10.0595 41.9686C10.1998 41.6371 10.4257 41.349 10.7141 41.1337C10.5035 40.9825 10.3314 40.784 10.2118 40.554C10.086 40.3097 10.0228 40.0379 10.0279 39.7631C10.0329 39.4883 10.1061 39.219 10.2408 38.9794L10.2891 38.9891C9.8222 38.8753 9.38446 38.6646 9.00423 38.3708C8.29067 37.8212 7.82043 37.0142 7.69407 36.1224C7.5677 35.2306 7.79523 34.3248 8.328 33.5986C8.00571 33.5267 7.69842 33.3992 7.41993 33.2218C6.78377 32.8153 6.33492 32.1729 6.17191 31.4358C6.0089 30.6986 6.14506 29.9269 6.5505 29.29C6.78029 28.9334 7.08734 28.6329 7.44891 28.411C7.06296 28.1156 6.76867 27.7169 6.60021 27.261C6.43175 26.8051 6.39601 26.3108 6.49715 25.8355C6.59829 25.3601 6.83216 24.9232 7.17161 24.5754C7.51107 24.2276 7.94219 23.9832 8.41495 23.8706C8.11132 23.5105 7.92356 23.067 7.87626 22.5984C7.82897 22.1297 7.92435 21.6577 8.14991 21.2442C8.37547 20.8306 8.72068 20.4949 9.14031 20.2809C9.55995 20.067 10.0344 19.9848 10.5016 20.0451L10.5112 20.1513C10.4378 19.7891 10.4646 19.4136 10.589 19.0655C10.7134 18.7174 10.9305 18.4099 11.2169 18.1762C11.5033 17.9425 11.8481 17.7915 12.2141 17.7395C12.58 17.6875 12.9533 17.7365 13.2934 17.8811C13.3192 17.6233 13.4052 17.3751 13.5446 17.1566C13.8054 16.7509 14.2208 16.49 14.6652 16.4128C14.576 16.0299 14.5532 15.6345 14.5976 15.2439C14.7022 14.3506 15.1516 13.5335 15.85 12.9669C16.5484 12.4002 17.4405 12.1288 18.3362 12.2105C18.228 11.8968 18.1757 11.5666 18.1816 11.2348C18.2299 9.66016 19.534 8.41397 21.099 8.46227C21.522 8.46987 21.938 8.5722 22.3162 8.76174C22.3733 8.28063 22.5652 7.82543 22.8698 7.44868C23.1744 7.07192 23.5793 6.78895 24.0378 6.63242C24.4963 6.47588 24.9897 6.45215 25.4611 6.56397C25.9325 6.67579 26.3627 6.9186 26.702 7.26439C26.8514 6.81669 27.1329 6.42469 27.5093 6.13995C27.8857 5.85522 28.3394 5.69108 28.8109 5.66913C29.2824 5.64717 29.7494 5.76843 30.1507 6.01696C30.5519 6.26549 30.8685 6.62964 31.0589 7.06152C31.3366 6.83362 31.6699 6.68358 32.0247 6.62673C32.3795 6.56988 32.743 6.60827 33.078 6.73797C33.4131 6.86767 33.7077 7.08403 33.9317 7.36493C34.1557 7.64582 34.3011 7.98117 34.3531 8.33669C34.5886 8.22659 34.8467 8.17363 35.1066 8.18212C35.9567 8.20144 36.6329 8.85835 36.7199 9.66982L36.7005 9.6988C37.0862 9.08282 37.658 8.60572 38.3331 8.33669C40.072 7.63148 42.0427 8.45261 42.7769 10.1722C43.0029 9.92408 43.2711 9.71803 43.5691 9.56356C44.2416 9.21908 45.0235 9.15583 45.7427 9.38771C46.4619 9.6196 47.0595 10.1276 47.4042 10.8001C47.5971 11.1776 47.7028 11.5935 47.7134 12.0173C48.1639 11.8349 48.657 11.784 49.1353 11.8705C49.6136 11.9571 50.0575 12.1775 50.4156 12.5062C50.7736 12.8349 51.0311 13.2585 51.1581 13.7277C51.2852 14.1969 51.2765 14.6925 51.1331 15.1569C51.596 15.0765 52.0724 15.1373 52.5001 15.3316C52.9279 15.5259 53.2872 15.8445 53.5312 16.246C53.7752 16.6474 53.8926 17.1131 53.8681 17.5823C53.8435 18.0514 53.6782 18.5023 53.3937 18.8762C53.7274 19.0109 54.0193 19.232 54.2393 19.5168C54.4594 19.8016 54.5997 20.1398 54.6459 20.4968C54.6922 20.8537 54.6426 21.2165 54.5023 21.548C54.362 21.8794 54.1361 22.1676 53.8477 22.3829C54.0548 22.5351 54.2235 22.7336 54.3404 22.9625C54.4679 23.2081 54.532 23.4817 54.5269 23.7583C54.5218 24.035 54.4478 24.306 54.3114 24.5468C54.7639 24.6627 55.188 24.8698 55.5576 25.1554C56.2669 25.7062 56.7334 26.512 56.8579 27.4013C56.9824 28.2907 56.755 29.1936 56.2242 29.918C56.5471 29.9928 56.8544 30.1236 57.1322 30.3044C57.7657 30.7108 58.2127 31.3514 58.3756 32.0862C58.5385 32.821 58.404 33.5904 58.0017 34.2265C57.7758 34.5856 57.472 34.8894 57.1129 35.1153C57.6182 35.5082 57.9587 36.0755 58.0677 36.7062C58.1767 37.337 58.0463 37.9857 57.7022 38.5254Z"/>
<path d="M30.5851 9.64101C30.3614 9.86859 30.0934 10.0478 29.7976 10.1674C29.5018 10.2871 29.1845 10.3446 28.8655 10.3366C28.3075 10.3248 27.7724 10.1122 27.3585 9.73761C27.2072 10.2934 26.8734 10.7822 26.4109 11.1256C25.9485 11.4689 25.384 11.647 24.8082 11.631C24.4865 11.6261 24.1686 11.5606 23.8711 11.4378C23.8375 12.151 23.5365 12.8254 23.0281 13.3266C22.5197 13.8279 21.8412 14.1192 21.1276 14.1427C21.4138 14.7335 21.5244 15.394 21.4464 16.0458C21.3795 16.612 21.1733 17.1528 20.8463 17.6198C20.5192 18.0868 20.0815 18.4654 19.5723 18.7218C20.0843 19.2531 20.3837 19.9776 20.3644 20.7794C20.3492 21.3893 20.1393 21.9783 19.7655 22.4603C20.5963 22.924 21.1372 23.8128 21.1179 24.8271C21.1065 25.1252 21.0445 25.4193 20.9344 25.6965C21.5295 25.7573 22.0795 26.0412 22.4738 26.491C22.8681 26.9409 23.0774 27.5234 23.0597 28.1213C23.059 28.241 23.0493 28.3605 23.0307 28.4787C23.1645 28.4547 23.3005 28.445 23.4364 28.4498C24.3252 28.4691 25.0594 29.097 25.2526 29.9278C25.5436 29.7325 25.8875 29.6313 26.2379 29.638C27.0397 29.6573 27.687 30.2176 27.8705 30.9615C28.02 30.8774 28.1872 30.8301 28.3585 30.8233C28.5299 30.8166 28.7003 30.8507 28.8559 30.9228C28.9689 30.3194 29.2388 29.7563 29.6384 29.2902C29.5091 29.1925 29.4035 29.0671 29.3292 28.9231C29.2486 28.7659 29.2074 28.5914 29.2091 28.4148C29.2108 28.2381 29.2553 28.0644 29.3389 27.9088C29.0395 27.8409 28.7637 27.6942 28.5402 27.4838C28.3167 27.2733 28.1535 27.0069 28.0678 26.7121C27.982 26.4174 27.9767 26.105 28.0524 25.8075C28.1282 25.51 28.2822 25.2382 28.4985 25.0203C28.0988 24.8454 27.7714 24.5384 27.5711 24.1509C27.45 23.9139 27.3797 23.6542 27.3647 23.3885C27.3497 23.1227 27.3903 22.8568 27.484 22.6077C27.5776 22.3585 27.7222 22.1317 27.9086 21.9416C28.0949 21.7516 28.3188 21.6025 28.5661 21.5039C28.5136 21.5242 28.462 21.5468 28.4115 21.5716C28.1981 21.3797 28.0213 21.1505 27.8898 20.8953C27.7229 20.5717 27.6329 20.2138 27.6268 19.8497C27.6208 19.4855 27.6989 19.1249 27.855 18.7959C28.0111 18.4668 28.241 18.1783 28.5269 17.9526C28.8127 17.727 29.1468 17.5703 29.5031 17.4949V17.4852C29.1845 16.8649 29.1245 16.1436 29.3364 15.4792C29.5482 14.8148 30.0145 14.2613 30.6334 13.9399C31.0729 13.7098 31.5687 13.6093 32.0631 13.6501C32.0291 13.095 32.157 12.5421 32.4314 12.0584C32.7058 11.5748 33.1149 11.1813 33.6088 10.9258C33.6596 10.9018 33.7112 10.8793 33.7634 10.8582C33.6374 10.6967 33.5424 10.5133 33.4832 10.3172C33.1346 10.5488 32.723 10.6669 32.3046 10.6553C31.9556 10.6462 31.6148 10.5472 31.3153 10.3678C31.0157 10.1884 30.7675 9.93475 30.5948 9.63135L30.5851 9.64101ZM51.3259 30.604C50.8745 30.2536 50.5172 29.7965 50.2861 29.2737C50.0551 28.751 49.9576 28.179 50.0024 27.6093C49.2876 27.7735 48.5051 27.6673 47.8385 27.2325C47.3204 26.906 46.9208 26.4218 46.6986 25.8511C46.2825 26.0871 45.8101 26.2054 45.3319 26.1935C44.8538 26.1816 44.3878 26.0399 43.984 25.7835C43.7284 25.6206 43.5029 25.4147 43.3175 25.1749C42.5833 26.1602 41.2018 26.4307 40.1489 25.7545C40.0471 25.691 39.9502 25.62 39.8591 25.542C39.8143 25.6702 39.756 25.7932 39.6852 25.9091C39.4562 26.2647 39.1158 26.5343 38.7173 26.6759C38.3188 26.8175 37.8846 26.823 37.4826 26.6916C37.497 27.0432 37.4025 27.3906 37.2121 27.6866C36.7871 28.3628 35.9659 28.6333 35.2414 28.4015C35.2373 28.5964 35.1805 28.7867 35.0772 28.9521C35.0192 29.039 34.9516 29.1163 34.884 29.1743C35.2679 29.5881 35.5463 30.0885 35.6954 30.633C35.8461 30.5608 36.0114 30.5244 36.1784 30.5267C36.3563 30.5317 36.5303 30.5801 36.6852 30.6676C36.8401 30.7552 36.9712 30.8793 37.0672 31.0291C37.269 30.7989 37.5285 30.6267 37.819 30.5303C38.1096 30.434 38.4206 30.4169 38.7199 30.4809C39.0193 30.5449 39.2961 30.6877 39.5218 30.8944C39.7475 31.1012 39.914 31.3644 40.004 31.657C40.3492 31.3905 40.7755 31.2507 41.2115 31.2609C42.2741 31.2802 43.0953 32.1593 43.076 33.2123C43.0728 33.277 43.0663 33.3415 43.0566 33.4055L43.076 33.222C43.3456 33.1265 43.6304 33.0807 43.9164 33.0867C44.2289 33.093 44.5371 33.1611 44.8231 33.2871C45.1092 33.413 45.3674 33.5944 45.583 33.8208C45.7985 34.0471 45.9671 34.3139 46.079 34.6058C46.1909 34.8976 46.2439 35.2087 46.2349 35.5211C46.2292 35.7273 46.1968 35.9319 46.1383 36.1297C47.597 36.1684 48.7466 37.3759 48.708 38.8347C48.6958 39.3268 48.5452 39.8056 48.2732 40.2161C48.7828 40.45 49.2127 40.8281 49.5097 41.3037C49.8067 41.7793 49.9579 42.3315 49.9445 42.892C49.933 43.213 49.8677 43.5297 49.7513 43.8291L49.7609 43.8097L50.0218 43.858C50.0025 43.4385 50.1139 43.0234 50.3406 42.6698C50.5283 42.3756 50.7887 42.1347 51.0967 41.9706C51.4047 41.8064 51.7498 41.7245 52.0987 41.7328C52.0184 41.4233 52.0027 41.1007 52.0526 40.7849C52.1025 40.4691 52.2168 40.1669 52.3886 39.8973C52.6927 39.4287 53.1558 39.0856 53.6927 38.9313C53.2911 38.5159 53.0411 37.9772 52.9833 37.4023C52.9254 36.8274 53.0631 36.2497 53.3739 35.7627C53.5501 35.4907 53.7763 35.2547 54.0405 35.0671C53.4427 34.6711 53.0168 34.0635 52.8484 33.3665C52.6799 32.6695 52.7814 31.9345 53.1324 31.3092C52.4783 31.251 51.8546 31.0063 51.3356 30.604H51.3259Z"/>
<path d="M51.4605 22.8372C51.5213 22.7366 51.5925 22.6427 51.673 22.5571C51.3039 22.3626 51.0036 22.059 50.8133 21.6876C50.654 21.3773 50.5774 21.0311 50.5909 20.6825C50.6044 20.3339 50.7077 19.9947 50.8906 19.6976C50.2916 19.5237 49.77 19.118 49.4608 18.519C49.2039 18.0222 49.1353 17.4492 49.2676 16.9058C48.7075 17.0409 48.1182 16.984 47.5943 16.7439C47.0705 16.5039 46.6425 16.0948 46.3792 15.5823C46.2312 15.293 46.1394 14.9783 46.1087 14.6549C45.4666 14.9676 44.7302 15.027 44.0463 14.8211C43.3624 14.6152 42.7811 14.1592 42.4184 13.5439C42.0368 14.0768 41.5104 14.4892 40.9017 14.7322C40.3725 14.944 39.799 15.0214 39.2326 14.9573C38.6661 14.8932 38.1244 14.6898 37.6558 14.3651V14.3361C37.5436 14.7021 37.3593 15.0419 37.1138 15.3355C36.8682 15.6292 36.5664 15.8708 36.2261 16.046C35.6831 16.3294 35.0634 16.431 34.4582 16.3358C34.45 16.8125 34.3127 17.278 34.0609 17.6828C33.8092 18.0877 33.4524 18.4167 33.0285 18.635C32.7626 18.7729 32.4751 18.8644 32.1784 18.9055C32.6518 20.0357 32.1784 21.3592 31.0675 21.9291C30.9618 21.9856 30.852 22.0341 30.739 22.0741C30.8248 22.1786 30.8993 22.2919 30.9612 22.4122C31.3669 23.2043 31.1641 24.151 30.5265 24.7113C30.8378 24.8757 31.0908 25.132 31.251 25.4455C31.6181 26.1507 31.4442 26.9912 30.8646 27.5032C31.0329 27.6061 31.1699 27.7531 31.2607 27.9282C31.309 28.0152 31.3379 28.1021 31.3573 28.1891C31.9244 28.0304 32.5225 28.0171 33.0961 28.1504C33.1217 28.0203 33.1708 27.8959 33.241 27.7833C33.3361 27.6348 33.4657 27.5116 33.6188 27.4241C33.7719 27.3366 33.9439 27.2875 34.1201 27.281C34.0264 26.9889 34.0125 26.677 34.0799 26.3777C34.1473 26.0784 34.2935 25.8026 34.5034 25.5788C34.7134 25.3551 34.9793 25.1916 35.2738 25.1053C35.5682 25.019 35.8803 25.0131 36.1778 25.0881C36.13 24.6549 36.2323 24.2184 36.4676 23.8516C37.0279 22.9628 38.2065 22.702 39.0952 23.2719C39.1556 22.9901 39.2669 22.7216 39.4237 22.4798C39.5907 22.2154 39.8085 21.9867 40.0644 21.8069C40.3204 21.6272 40.6094 21.4999 40.9149 21.4326C41.2203 21.3652 41.536 21.359 41.8438 21.4144C42.1516 21.4698 42.4454 21.5857 42.7082 21.7553C42.8792 21.8667 43.0351 21.9999 43.1719 22.1513C43.3577 21.8588 43.5992 21.6058 43.8828 21.4066C44.1664 21.2075 44.4865 21.0662 44.8247 20.9909C45.163 20.9155 45.5127 20.9075 45.854 20.9674C46.1953 21.0273 46.5215 21.1539 46.8139 21.3399C47.2327 21.6049 47.5677 21.9835 47.7799 22.4315C48.6976 21.8132 49.9342 21.7553 50.9195 22.3928C51.1173 22.5183 51.299 22.6676 51.4605 22.8372ZM33.299 35.5889C33.1966 35.3999 33.1529 35.1846 33.1734 34.9707C32.8892 35.0422 32.5971 35.0779 32.304 35.0769C32.0142 35.0769 31.734 35.0479 31.4732 34.9803C31.5182 35.2451 31.4631 35.5171 31.3186 35.7435C31.2226 35.8933 31.0915 36.0174 30.9366 36.105C30.7817 36.1925 30.6077 36.2409 30.4299 36.2458C30.5206 36.5364 30.5325 36.8459 30.4645 37.1426C30.3965 37.4393 30.2509 37.7127 30.0426 37.9347C29.8343 38.1567 29.5708 38.3195 29.279 38.4064C28.9873 38.4932 28.6777 38.501 28.3819 38.4291C28.4297 38.8623 28.3274 39.2988 28.0921 39.6656C27.8186 40.0915 27.3875 40.3916 26.8932 40.5002C26.3988 40.6089 25.8816 40.5172 25.4548 40.2452C25.3944 40.5271 25.2831 40.7955 25.1263 41.0374C24.9593 41.3005 24.742 41.528 24.4868 41.7069C24.2316 41.8858 23.9437 42.0125 23.6394 42.0799C23.3351 42.1472 23.0205 42.1537 22.7137 42.0992C22.4069 42.0446 22.1139 41.93 21.8514 41.7619C21.6771 41.651 21.518 41.5179 21.3781 41.3658V41.3755C21.0014 41.9647 20.4061 42.3802 19.7231 42.5305C19.0402 42.6809 18.3254 42.5538 17.7361 42.1773C17.3186 41.9148 16.9838 41.5398 16.7701 41.0953C15.8524 41.7136 14.6255 41.7716 13.6305 41.134C13.4327 41.0084 13.2511 40.8592 13.0895 40.6896C13.0281 40.7868 12.9569 40.8774 12.877 40.9601C13.2497 41.153 13.5535 41.4567 13.7464 41.8295C13.9043 42.1407 13.9792 42.4873 13.964 42.8359C13.9487 43.1845 13.8439 43.5233 13.6594 43.8196C14.2584 43.9934 14.7897 44.3992 15.0892 44.9981C15.3461 45.495 15.4147 46.0679 15.2824 46.6114C15.845 46.4746 16.4373 46.5318 16.9634 46.7738C17.4894 47.0158 17.9183 47.4283 18.1805 47.9445C18.3242 48.2314 18.4127 48.5427 18.4413 48.8623C19.0845 48.5467 19.8231 48.4858 20.5093 48.6918C21.1954 48.8978 21.7783 49.3555 22.1413 49.9732C22.5229 49.4403 23.0492 49.028 23.6579 48.785C24.7689 48.3406 25.9764 48.5145 26.9038 49.1521C27.0178 48.792 27.202 48.4581 27.4457 48.1696C27.6894 47.8811 27.9879 47.6437 28.3239 47.4712C28.868 47.191 29.4877 47.0928 30.0918 47.191C30.1014 46.254 30.6231 45.3459 31.5215 44.8822C31.7904 44.7434 32.0813 44.6519 32.3813 44.6117C31.8982 43.4814 32.3813 42.158 33.4825 41.588C33.5916 41.5343 33.7047 41.4891 33.8207 41.4528C33.7308 41.3457 33.6531 41.2291 33.5888 41.105C33.1831 40.3128 33.3956 39.3758 34.0235 38.8155C33.7122 38.6512 33.4592 38.3948 33.299 38.0813C32.9416 37.3664 33.1155 36.526 33.6854 36.014C33.5207 35.9097 33.3872 35.7628 33.299 35.5889Z"/>
<path d="M29.0193 32.7968C28.8296 32.9286 28.6028 32.9963 28.372 32.99C28.195 32.9861 28.0216 32.9392 27.8668 32.8534C27.712 32.7676 27.5803 32.6454 27.4833 32.4973C27.2811 32.725 27.0222 32.895 26.7329 32.9898C26.4436 33.0847 26.1342 33.101 25.8366 33.0371C25.5389 32.9733 25.2635 32.8315 25.0385 32.6264C24.8135 32.4212 24.6471 32.16 24.5562 31.8694C24.207 32.1346 23.7771 32.2711 23.339 32.2558C22.286 32.2365 21.4552 31.3574 21.4842 30.3044C21.2108 30.3978 20.9227 30.4404 20.634 30.43C20.2702 30.4214 19.9132 30.3291 19.5908 30.1601C19.2685 29.9911 18.9894 29.75 18.7754 29.4556C18.5614 29.1612 18.4181 28.8214 18.3568 28.4626C18.2955 28.1038 18.3177 27.7358 18.4218 27.387H18.4122C16.9631 27.358 15.8039 26.1505 15.8425 24.6917C15.8546 24.1996 16.0053 23.7208 16.2772 23.3103C15.7713 23.0735 15.3454 22.6942 15.052 22.2188C14.7585 21.7435 14.6102 21.1928 14.6253 20.6344C14.6317 20.3178 14.6904 20.0044 14.7992 19.707C14.7111 19.6978 14.6239 19.6816 14.5384 19.6587C14.5576 20.0782 14.4463 20.4934 14.2196 20.8469C14.0319 21.1412 13.7714 21.382 13.4634 21.5461C13.1554 21.7103 12.8103 21.7922 12.4614 21.784C12.6159 22.3926 12.529 23.0495 12.1716 23.6194C11.8715 24.0898 11.4119 24.4363 10.8771 24.5951C11.6789 25.4356 11.8431 26.7397 11.1862 27.7637C11.0129 28.0348 10.79 28.2708 10.5293 28.4593C11.1246 28.8551 11.5487 29.4609 11.7171 30.1556C11.8854 30.8504 11.7855 31.5831 11.4374 32.2075C12.0891 32.2703 12.7093 32.5184 13.2245 32.9224C13.6746 33.2719 14.031 33.7275 14.2619 34.2484C14.4929 34.7693 14.5912 35.3393 14.548 35.9074C15.2725 35.7432 16.0454 35.8591 16.7216 36.2939C17.2345 36.6194 17.6304 37.0999 17.8519 37.6656C18.2688 37.4311 18.7417 37.3144 19.2199 37.328C19.698 37.3416 20.1635 37.4851 20.5664 37.7429C20.8213 37.9029 21.0467 38.1055 21.233 38.3419C21.9672 37.3565 23.3583 37.086 24.4016 37.7622C24.5038 37.8288 24.6006 37.903 24.6914 37.9844C24.7392 37.8558 24.8008 37.7328 24.875 37.6173C25.358 36.8638 26.266 36.5644 27.0775 36.8252C27.0623 36.4778 27.1532 36.1341 27.3383 35.8398C27.7731 35.1636 28.5942 34.9028 29.3091 35.1346C29.313 34.9297 29.3749 34.7302 29.4878 34.5592C29.6007 34.3881 29.7598 34.2527 29.9466 34.1686C29.5352 33.7971 29.2175 33.3337 29.0193 32.8161V32.7968Z"/>
</svg>
