<svg width="68" height="68" viewBox="0 0 68 68" fill="none" xmlns="http://www.w3.org/2000/svg">
<rect y="34" width="48" height="48" transform="rotate(-45 0 34)" fill="#373D48"/>
<g clip-path="url(#clip0_112_4879)">
<path d="M37 36L37 37L38 36L39 35C39 35 39 35 40 35L49 45C49 45 49 45 49 45L49 45L45 49C45 49 45 49 45 49L35 40C35 39 35 39 35 39L36 38L37 37L36 37L30 31L29 30L29 31L23 37L19 33L25 27L26 27L25 26L25 26V25H26L26 25L27 26L27 25L31 21H39L31 29L30 29L31 30L37 36Z" stroke="white" stroke-width="2"/>
</g>
<defs>
<clipPath id="clip0_112_4879">
<rect width="32" height="32" fill="white" transform="translate(18 18)"/>
</clipPath>
</defs>
</svg>
