<svg width="68" height="68" viewBox="0 0 68 68" fill="none" xmlns="http://www.w3.org/2000/svg">
<rect y="34" width="48" height="48" transform="rotate(-45 0 34)" fill="#373D48"/>
<path d="M48 41V31L48 31C49 31 49 30 49 30C49 30 49 29 48 29L33 20C33 20 33 20 33 20C33 20 33 20 32 20L18 29C17 29 17 30 17 30C17 30 17 31 18 31L24 35C24 35 24 35 24 36V45C24 46 24 46 24 46C25 46 27 48 33 48C39 48 41 46 42 46C42 46 42 46 42 46C42 46 42 46 42 45V35C42 35 42 35 42 35L46 33V41C45 41 45 42 45 43C45 44 46 45 47 45C48 45 49 44 49 43C49 42 49 41 49 41V41ZM40 45C39 45 37 46 33 46C29 46 27 45 26 45V36L32 40C33 40 33 40 33 40C33 40 33 40 33 40L40 36V45V45ZM33 38L20 30L33 22L46 30L33 38V38Z" fill="white"/>
</svg>
