<svg width="68" height="68" viewBox="0 0 68 68" fill="none" xmlns="http://www.w3.org/2000/svg">
<rect y="34" width="48" height="48" transform="rotate(-45 0 34)" fill="#373D48"/>
<path d="M48 32L45 29C47 28 49 26 49 24C49 21 46 18 43 18C41 18 39 20 38 22L35 19C34 18 32 18 31 19L27 23C26 24 26 24 26 25C27 25 27 25 27 25H28C30 25 32 27 32 29C32 31 30 33 28 33C26 33 24 31 24 29V28C24 28 24 28 24 27C23 27 23 27 23 27L18 32C17 33 17 35 18 36L31 49C32 50 32 50 33 50C34 50 34 50 35 49L48 36C49 35 49 33 48 32ZM47 34L33 48C33 48 33 48 33 48L19 34C19 34 19 34 19 34L23 30C23 32 24 33 25 34C26 34 27 35 28 35C32 35 34 32 34 29C34 26 32 24 30 23L33 20C33 20 33 20 33 20L38 25C39 25 39 25 39 25C40 25 40 25 40 24V24V24C40 22 42 20 43 20C45 20 47 22 47 24C47 26 45 27 43 27H43C43 27 42 27 42 28C42 28 42 29 42 29L47 34C47 34 47 34 47 34Z" fill="white"/>
</svg>
