<svg width="68" height="68" viewBox="0 0 68 68" fill="none" xmlns="http://www.w3.org/2000/svg">
<rect y="34" width="48" height="48" transform="rotate(-45 0 34)" fill="#373D48"/>
<path d="M48 22H40V20C40 18 39 17 37 17H31C29 17 28 18 28 20V22H20C19 22 18 23 18 24V45C18 46 19 47 20 47H48C49 47 50 46 50 45V24C50 23 50 23 49 23C49 22 49 22 48 22V22ZM30 20C30 19 30 19 31 19H37C38 19 38 19 38 20V22H30V20ZM20 24H48V31H37V30C37 29 36 28 35 28H33C32 28 31 29 31 30V31H20V24ZM35 35H33V30H35V35ZM20 45V33H31V35C31 36 32 37 33 37H35C36 37 36 37 36 36C37 36 37 36 37 35V33H48V45H20L20 45Z" fill="white"/>
</svg>
