<svg viewBox="0 0 57 64" fill="white" xmlns="http://www.w3.org/2000/svg">
<path d="M56.3117 17.2468C56.3117 16.6234 56.1039 16 55.6883 15.5844C55.6883 15.5844 55.6883 15.5844 55.4805 15.3766C55.4805 15.3766 55.2727 15.3766 55.2727 15.1688L29.2987 0.415585H29.0909C28.8831 9.28904e-08 28.4675 0 28.0519 0C27.8442 0 27.6364 4.64452e-08 27.4286 0.207792C27.2208 0.207792 27.2208 0.415585 27.013 0.415585L1.24675 15.1688C0.831169 15.3766 0.623377 15.5844 0.623377 15.5844C0.207792 16 0 16.6234 0 17.2468V46.961C0 47.7922 0.415584 48.6234 1.24675 49.039L27.013 63.7922C27.013 63.7922 27.013 63.7922 27.2208 63.7922C27.4286 63.7922 27.4286 64 27.6364 64C27.8442 64 28.0519 64 28.0519 64C28.2597 64 28.4675 64 28.4675 64C28.6753 64 28.6753 64 28.8831 63.7922C28.8831 63.7922 28.8831 63.7922 29.0909 63.7922L54.8571 49.039C55.6883 48.6234 56.1039 47.7922 56.1039 46.961L56.3117 17.2468ZM10.1818 16.2078L27.6364 6.23377C28.0519 6.02597 28.4675 6.02597 28.6753 6.23377L46.1299 16.4156C46.961 16.6234 46.961 17.8701 46.1299 18.2857L28.6753 28.4675C28.2597 28.6753 27.8442 28.6753 27.6364 28.4675L10.1818 18.2857C9.35065 17.8701 9.35065 16.6234 10.1818 16.2078ZM25.1429 54.6493C25.1429 55.4805 24.3117 56.1039 23.4805 55.6883L6.02597 45.5065C5.61039 45.2987 5.4026 44.8831 5.4026 44.6753V24.5195C5.4026 23.6883 6.23377 23.0649 7.06494 23.4805L24.5195 33.6623C24.9351 33.8701 25.1429 34.2857 25.1429 34.7013V54.6493ZM50.9091 44.6753C50.9091 45.0909 50.7013 45.5065 50.2857 45.7143L32.8312 55.8961C32 56.3117 31.1688 55.6883 31.1688 54.8571V34.7013C31.1688 34.2857 31.3766 33.8701 31.7922 33.6623L49.2468 23.4805C50.0779 23.0649 50.9091 23.6883 50.9091 24.5195V44.6753Z"/>
</svg>