<svg viewBox="0 0 60 64" fill="none" xmlns="http://www.w3.org/2000/svg">
<path d="M38.8812 55.2854C38.3727 55.2854 37.8755 55.4362 37.4526 55.7188C37.0298 56.0014 36.7002 56.403 36.5056 56.8728C36.3109 57.3427 36.26 57.8597 36.3592 58.3585C36.4584 58.8573 36.7034 59.3155 37.063 59.6751C37.4226 60.0347 37.8808 60.2796 38.3796 60.3789C38.8784 60.4781 39.3954 60.4272 39.8653 60.2325C40.3351 60.0379 40.7367 59.7083 41.0193 59.2855C41.3018 58.8626 41.4527 58.3654 41.4527 57.8569C41.4527 57.1749 41.1817 56.5208 40.6995 56.0386C40.2173 55.5564 39.5632 55.2854 38.8812 55.2854ZM54.8697 34.1998C53.5126 32.1113 49.2455 26.707 42.4041 23.6699C41.5374 23.2832 40.6622 22.937 39.7784 22.6313C40.3596 21.2103 40.6427 19.6851 40.6099 18.1501C40.5772 16.6152 40.2293 15.1034 39.5879 13.7085C38.9465 12.3136 38.0253 11.0655 36.8815 10.0414C35.7376 9.01742 34.3955 8.2394 32.9384 7.75568C31.1656 7.16996 29.6056 6.89854 28.3084 6.93139C28.2227 6.64568 28.0384 5.35997 29.6513 1.93142L26.3799 0L25.597 1.07999C24.3556 2.80284 23.1799 4.44426 22.1199 6.06426C21.7307 5.97233 21.3346 5.91261 20.9356 5.88568C15.0028 5.53569 15.3642 5.55283 15.0699 5.55283C7.83996 5.55283 7.81996 12.9985 7.81996 12.1071L7.48282 17.3471C7.25282 21.2042 10.3042 24.5199 14.2871 24.7542L15.5628 24.8313C13.137 26.2138 10.912 27.922 8.94996 29.9084C0 38.9512 0 48.8569 0 56.824V61.6297L3.33141 57.3726C3.77798 59.2473 4.47774 61.0524 5.4114 62.7383C6.23711 64.1854 7.53568 64.0883 8.2171 63.7854C8.81853 63.5183 9.64567 62.7968 8.75281 60.9126C7.61132 58.5154 6.85168 55.9545 6.5014 53.3226L13.1899 44.7755L9.66709 55.3626C17.9856 49.3055 32.1498 46.5398 43.4169 49.8498C48.3026 51.2855 53.0526 49.9483 55.5226 46.4441C55.6254 46.3012 55.694 46.1355 55.7869 45.9841C56.0441 47.3228 56.178 48.6823 56.1869 50.0455C56.1869 53.374 55.6597 57.6069 54.0612 61.7083C53.7012 62.6311 54.3126 63.7797 55.2897 63.9568C56.3497 64.1811 57.4797 63.514 57.914 62.364C59.2854 58.714 59.9997 54.5712 59.9997 50.0455C59.9997 44.5341 58.1426 38.9798 54.8697 34.1998ZM18.3385 13.7971L16.0956 13.6642L15.8971 16.7771L17.7728 16.8885C17.6896 17.8194 17.705 18.7565 17.8185 19.6842L14.6214 19.4928C14.391 19.4832 14.1649 19.4284 13.9558 19.3313C13.7467 19.2343 13.5587 19.0971 13.4027 18.9274C13.2467 18.7577 13.1256 18.5589 13.0465 18.3424C12.9673 18.1259 12.9316 17.8959 12.9414 17.6656L13.2856 12.4285C13.4285 10.6899 15.2671 10.8185 15.1799 10.8114L19.3385 11.0585C18.941 11.9466 18.6068 12.8618 18.3385 13.7971ZM39.5412 38.3941C39.2386 38.6286 38.8579 38.7386 38.4768 38.7017C38.0958 38.6648 37.7432 38.4837 37.4912 38.1955L36.1084 36.5541L31.1913 40.4112C30.9574 40.5951 30.6615 40.6818 30.3653 40.653C30.0692 40.6243 29.7955 40.4824 29.6013 40.2569L27.347 37.5941C27.1768 37.3727 27.1013 37.0929 27.1372 36.8159C27.1731 36.539 27.3174 36.2876 27.5384 36.117L32.477 32.2341L30.457 29.8427L28.0156 31.7641C27.7928 31.9378 27.512 32.0198 27.2308 31.9932C26.9495 31.9667 26.6891 31.8336 26.5027 31.6213C26.5027 31.6213 25.9713 30.9898 25.9599 30.9741C25.7901 30.7522 25.7154 30.472 25.7521 30.1951C25.7888 29.9181 25.9339 29.667 26.1556 29.497L28.5713 27.5984C28.5713 27.5984 25.927 24.4556 25.9142 24.4356C25.8044 24.2935 25.7238 24.1311 25.6769 23.9578C25.63 23.7844 25.6178 23.6035 25.6409 23.4255C25.664 23.2474 25.7219 23.0756 25.8115 22.92C25.901 22.7644 26.0204 22.6279 26.1627 22.5185C26.4628 22.2814 26.8428 22.1694 27.2235 22.2058C27.6041 22.2423 27.956 22.4244 28.2056 22.7142L39.7898 36.4741C39.8996 36.6165 39.9803 36.7791 40.0272 36.9526C40.0741 37.1262 40.0864 37.3073 40.0633 37.4856C40.0402 37.6639 39.9823 37.8359 39.8927 37.9918C39.8031 38.1477 39.6837 38.2844 39.5412 38.3941ZM24.777 55.2854C24.2684 55.2854 23.7713 55.4362 23.3484 55.7188C22.9256 56.0014 22.596 56.403 22.4013 56.8728C22.2067 57.3427 22.1558 57.8597 22.255 58.3585C22.3542 58.8573 22.5991 59.3155 22.9588 59.6751C23.3184 60.0347 23.7766 60.2796 24.2754 60.3789C24.7742 60.4781 25.2912 60.4272 25.7611 60.2325C26.2309 60.0379 26.6325 59.7083 26.9151 59.2855C27.1976 58.8626 27.3484 58.3654 27.3484 57.8569C27.3484 57.1749 27.0775 56.5208 26.5953 56.0386C26.1131 55.5564 25.459 55.2854 24.777 55.2854Z" fill="white"/>
</svg>